<svg id="1f87a958-21a9-4224-a145-99f0113a9b05" data-name="Layer 1" xmlns="http://www.w3.org/2000/svg" viewBox="0 0 85.059996 115.53"><path d="m 0,0 c 0,0 0,13.38 0,56.05 0,43.5 42.53,59.48 42.53,59.48 0,0 42.53,-16 42.53,-59.48 0,-42.67 0,-56.05 0,-56.05 z m 66.76,22.16 c 1.12,-1.85 3.19,-3.55 5.45,-3.17 a 3.3,3.3 0 0 1 1.72,0.88 3.31,3.31 0 0 1 0.35,-2.41 c 0,0 1.21,-2.41 5.11,-2.61 h 0.07 a 0.14,0.14 0 0 1 0.05,0.19 l -8.29,14.37 a 0.14,0.14 0 0 1 -0.19,0.05 v 0 a 2.32,2.32 0 0 1 -0.72,-3.09 2.27,2.27 0 0 1 0.76,-0.79 6.25,6.25 0 0 1 -4.31,-3.19 0.21,0.21 0 0 1 0,-0.23 z m 3.07,9.68 -3,5.16 a 48.67,48.67 0 0 0 -48.61,0 l -3,-5.16 a 54.63,54.63 0 0 1 54.58,0 z M 53,16.08 l 0.54,-2 a 0.83,0.83 0 0 1 1,-0.59 l 3.33,0.89 0.89,-3.33 a 0.83,0.83 0 0 1 1,-0.59 l 2,0.54 a 0.83,0.83 0 0 1 0.59,1 l -0.89,3.33 3.33,0.89 a 0.83,0.83 0 0 1 0.59,1 l -0.54,2 a 0.83,0.83 0 0 1 -1,0.59 l -3.33,-0.89 -1.21,4.52 a 0.83,0.83 0 0 1 -1,0.59 l -2,-0.54 a 0.83,0.83 0 0 1 -0.59,-1 L 57,17.99 53.67,17.1 A 0.83,0.83 0 0 1 53,16.08 Z M 38.17,12.22 a 3.3,3.3 0 0 1 1.93,-0.1 v 0 A 3.32,3.32 0 0 1 39.2,9.84 c 0,-0.1 -0.15,-2.74 3.22,-4.86 a 0.22,0.22 0 0 1 0.23,0 c 3.39,2.13 3.22,4.85 3.22,4.87 a 3.31,3.31 0 0 1 -0.9,2.26 3.3,3.3 0 0 1 1.93,0.1 c 2.15,0.8 3.09,3.3 3.13,5.47 a 0.21,0.21 0 0 1 -0.11,0.2 6.25,6.25 0 0 1 -5.32,0.61 2.27,2.27 0 0 1 0.26,1.11 2.32,2.32 0 1 1 -4.64,0 2.29,2.29 0 0 1 0.26,-1.06 6.25,6.25 0 0 1 -5.32,-0.61 0.21,0.21 0 0 1 -0.11,-0.2 c 0.03,-2.2 0.95,-4.71 3.12,-5.51 z m -18,4 L 23.5,15.33 22.61,12 a 0.84,0.84 0 0 1 0.59,-1 l 2,-0.54 a 0.83,0.83 0 0 1 1,0.59 l 0.89,3.33 3.33,-0.89 a 0.83,0.83 0 0 1 1,0.59 l 0.54,2 a 0.83,0.83 0 0 1 -0.59,1 l -3.33,0.89 1.21,4.52 a 0.83,0.83 0 0 1 -0.59,1 l -2,0.54 a 0.83,0.83 0 0 1 -1,-0.59 l -1.21,-4.52 -3.33,0.89 a 0.83,0.83 0 0 1 -1,-0.59 l -0.54,-2 a 0.84,0.84 0 0 1 0.61,-0.99 z M 5.61,14.87 h 0.07 c 3.9,0.19 5.1,2.58 5.11,2.61 a 3.31,3.31 0 0 1 0.35,2.41 3.3,3.3 0 0 1 1.72,-0.88 c 2.26,-0.38 4.33,1.32 5.45,3.17 a 0.21,0.21 0 0 1 0,0.23 A 6.25,6.25 0 0 1 14,25.6 2.27,2.27 0 0 1 14.76,26.39 2.32,2.32 0 0 1 14,29.46 v 0 A 0.14,0.14 0 0 1 13.81,29.41 L 5.56,15.06 a 0.14,0.14 0 0 1 0.05,-0.19 z m 63.29,79 a 68.17,68.17 0 0 1 -6.41,6.51 76.67,76.67 0 0 1 -20,12.82 76.35,76.35 0 0 1 -19.85,-12.72 68.22,68.22 0 0 1 -6.51,-6.61 l 26.4,-20.2 -40.41,-31 h 80.82 l -40.41,31 z" style="fill:#4365e2"/></svg>
