<svg id="1f87a958-21a9-4224-a145-99f0113a9b05" data-name="Layer 1" xmlns="http://www.w3.org/2000/svg" viewBox="0 0 355.38 118.93"><title>uod-logo-blue </title><path d="M0,3.4S0,16.78,0,59.45c0,43.5,42.53,59.48,42.53,59.48s42.53-16,42.53-59.48c0-42.67,0-56.05,0-56.05ZM66.76,25.56c1.12-1.85,3.19-3.55,5.45-3.17a3.3,3.3,0,0,1,1.72.88,3.31,3.31,0,0,1,.35-2.41s1.21-2.41,5.11-2.61l.07,0a.14.14,0,0,1,.05.19L71.22,32.81a.14.14,0,0,1-.19.05h0a2.32,2.32,0,0,1-.72-3.09,2.27,2.27,0,0,1,.76-.79,6.25,6.25,0,0,1-4.31-3.19A.21.21,0,0,1,66.76,25.56Zm3.07,9.68-3,5.16a48.67,48.67,0,0,0-48.61,0l-3-5.16a54.63,54.63,0,0,1,54.58,0ZM53,19.48l.54-2a.83.83,0,0,1,1-.59l3.33.89.89-3.33a.83.83,0,0,1,1-.59l2,.54a.83.83,0,0,1,.59,1l-.89,3.33,3.33.89a.83.83,0,0,1,.59,1l-.54,2a.83.83,0,0,1-1,.59l-3.33-.89-1.21,4.52a.83.83,0,0,1-1,.59l-2-.54a.83.83,0,0,1-.59-1L57,21.39l-3.33-.89A.83.83,0,0,1,53,19.48ZM38.17,15.62a3.3,3.3,0,0,1,1.93-.1h0a3.32,3.32,0,0,1-.9-2.28c0-.1-.15-2.74,3.22-4.86a.22.22,0,0,1,.23,0c3.39,2.13,3.22,4.85,3.22,4.87a3.31,3.31,0,0,1-.9,2.26,3.3,3.3,0,0,1,1.93.1c2.15.8,3.09,3.3,3.13,5.47a.21.21,0,0,1-.11.2,6.25,6.25,0,0,1-5.32.61A2.27,2.27,0,0,1,44.86,23a2.32,2.32,0,1,1-4.64,0,2.29,2.29,0,0,1,.26-1.06,6.25,6.25,0,0,1-5.32-.61.21.21,0,0,1-.11-.2C35.08,18.93,36,16.42,38.17,15.62Zm-18,4,3.33-.89-.89-3.33a.84.84,0,0,1,.59-1l2-.54a.83.83,0,0,1,1,.59l.89,3.33,3.33-.89a.83.83,0,0,1,1,.59l.54,2a.83.83,0,0,1-.59,1l-3.33.89,1.21,4.52a.83.83,0,0,1-.59,1l-2,.54a.83.83,0,0,1-1-.59l-1.21-4.52-3.33.89a.83.83,0,0,1-1-.59l-.54-2A.84.84,0,0,1,20.19,19.63ZM5.61,18.27l.07,0c3.9.19,5.1,2.58,5.11,2.61a3.31,3.31,0,0,1,.35,2.41,3.3,3.3,0,0,1,1.72-.88c2.26-.38,4.33,1.32,5.45,3.17a.21.21,0,0,1,0,.23A6.25,6.25,0,0,1,14,29a2.27,2.27,0,0,1,.76.79A2.32,2.32,0,0,1,14,32.86h0a.14.14,0,0,1-.19-.05L5.56,18.46A.14.14,0,0,1,5.61,18.27Zm63.29,79a68.17,68.17,0,0,1-6.41,6.51,76.67,76.67,0,0,1-20,12.82,76.35,76.35,0,0,1-19.85-12.72,68.22,68.22,0,0,1-6.51-6.61L42.53,77.07l-40.41-31H82.94l-40.41,31Z" style="fill:#4365e2"/><path d="M343.18,67.21c3.62,0,5.78,2.38,6.1,5.89H336.53c.7-3.73,3.24-5.89,6.64-5.89m.22-4.81c-7.61,0-12.74,5.67-12.74,13.77,0,8.53,5.45,13.77,12.85,13.77,5.35,0,9.72-3.13,10.85-7l-4.54-2.48A6.35,6.35,0,0,1,343.45,85c-3.89,0-6.75-2.81-7.13-7.94H355V75.47c.11-7.29-4.16-13.07-11.61-13.07M315.2,67.21c3.62,0,5.78,2.38,6.1,5.89H308.56c.7-3.73,3.24-5.89,6.64-5.89m.22-4.81c-7.61,0-12.74,5.67-12.74,13.77,0,8.53,5.45,13.77,12.85,13.77,5.35,0,9.72-3.13,10.85-7l-4.54-2.48A6.35,6.35,0,0,1,315.47,85c-3.89,0-6.75-2.81-7.13-7.94H327V75.47c.11-7.29-4.16-13.07-11.61-13.07M285,84.92c-4.27,0-7-3.08-7-8.75s2.75-8.75,7-8.75c4,0,7,2.43,7.4,7.4v2.59c-.43,5.08-3.35,7.51-7.34,7.51m7.34-31.75v13H292c-1.46-2.21-4-3.78-7.94-3.78-6.37,0-11.77,5.18-11.77,13.77s5.4,13.77,11.83,13.77c3.94,0,6.48-1.62,7.94-3.83h.32V89.4H298v-37ZM258.45,62.4a9.26,9.26,0,0,0-7.83,4h-.49l-.22-3.29h-5.24V89.4h5.67V75.79c0-2.92.59-4.81,1.62-6a6.7,6.7,0,0,1,5.13-2.27c3.29,0,5,1.73,5,6.37V89.4h5.67V72c0-7.18-4.37-9.56-9.34-9.56m-25.65.76V76.76c0,2.92-.59,4.81-1.62,6A6.7,6.7,0,0,1,226.05,85c-3.29,0-5-1.73-5-6.37V63.16h-5.67V80.6c0,7.18,4.37,9.56,9.34,9.56a9.26,9.26,0,0,0,7.83-4.05H233l.22,3.29h5.24V63.16Zm-45.68-3.08h4.7c9.4,0,12.69,4.1,12.69,12s-3.35,12.2-12.69,12.2h-4.7ZM191.87,55H181.12V89.4h10.75c12.8,0,18.63-6.7,18.63-17.33S204.67,55,191.87,55m-26.22,4a11.8,11.8,0,0,1,3.16.46v-4.9a14.61,14.61,0,0,0-3.67-.36c-4.34,0-9.28,2-9.28,9.43v1h-4v4.34h4V89.4h5.3V68.95h6.63V64.61h-6.63v-.46c0-3.52,1.58-5.15,4.49-5.15M143.87,76.9c0,5.25-2.5,8.31-6.78,8.31s-6.78-3.06-6.78-8.31,2.6-8.31,6.78-8.31,6.78,3.06,6.78,8.31m5.41,0c0-8-4.95-13-12.19-13s-12.19,5-12.19,13,5,13,12.19,13,12.19-5,12.19-13" style="fill:#4365e2"/><path d="M355.38,11.56h-5.94l-6.86,20.25-6.8-20.25H329.3l10.06,26.37-3.58,9.76h5.89l11.72-30.83-.05.05ZM320.66,27.65V16.15h6.43V11.56h-6.48V4.27L315,5v6.59h-3.4v4.59H315v12c0,7.78,5.08,10,9.61,10a14.26,14.26,0,0,0,3.78-.43V32.56a11.68,11.68,0,0,1-3.24.49c-2.92,0-4.48-1.73-4.48-5.4M306.95,11.56h-5.67V37.8h5.67Zm.81-7.88a3.65,3.65,0,1,0-7.29,0,3.65,3.65,0,0,0,7.29,0M277.52,29.48l-2.86,3.78c1.89,2.7,5.35,5.08,10.64,5.08,6.1,0,10.26-3.29,10.26-8.37,0-4.91-4-6.8-8.69-8-3.19-.81-5.72-1.57-5.72-3.73,0-1.51,1.4-2.7,4.1-2.7a9.85,9.85,0,0,1,7.13,3.35l2.81-4a13.16,13.16,0,0,0-9.83-4.1c-5.83,0-9.83,3-9.83,7.83,0,5,4.05,6.8,9,8,3.56.92,5.45,1.89,5.45,3.94s-1.78,3.08-4.64,3.08a9.37,9.37,0,0,1-7.83-4.16m-6.59-18.63a7.89,7.89,0,0,0-7,4.64h-.38l-.27-3.89H258V37.8h5.72V23.17c0-4.54,2.81-6.91,6.37-6.91a4.85,4.85,0,0,1,2.11.32l.43-5.51a5,5,0,0,0-1.73-.22m-30.29,4.75c3.62,0,5.78,2.38,6.1,5.89H234c.7-3.73,3.24-5.89,6.64-5.89m.22-4.81c-7.61,0-12.74,5.67-12.74,13.77,0,8.53,5.45,13.77,12.85,13.77,5.35,0,9.72-3.13,10.85-7l-4.54-2.48a6.35,6.35,0,0,1-6.37,4.48c-3.89,0-6.75-2.81-7.13-7.94h18.68V23.87c.11-7.29-4.16-13.07-11.61-13.07m-20.52.76-6.86,20.25-6.8-20.25h-6.48l10,26.24h6.1l10-26.24Zm-24.46,0H190.2V37.8h5.67Zm.81-7.88a3.65,3.65,0,1,0-7.29,0,3.65,3.65,0,0,0,7.29,0M174,10.8a9.26,9.26,0,0,0-7.83,4.05h-.49l-.22-3.29h-5.24V37.8h5.67V24.19c0-2.92.59-4.81,1.62-6a6.7,6.7,0,0,1,5.13-2.27c3.29,0,5,1.73,5,6.37V37.8h5.67V20.36c0-7.18-4.37-9.56-9.34-9.56M131.72,23.71V3.4h-6V23.87c0,9.45,4.43,15,13.82,15s13.88-5.4,13.88-15V3.4h-6v20.3c0,6.43-2.11,9.72-7.88,9.72s-7.83-3.29-7.83-9.72" style="fill:#4365e2"/><polygon points="209.45 18.85 209.45 18.85 209.45 18.85 209.45 18.85" style="fill:#4460a9"/></svg>